HIERARCHY
ROOT hip
{
  OFFSET 0 0 0
  CHANNELS 6 Xposition Yposition Zposition Zrotation Yrotation Xrotation
  JOINT abdomen
  {
    OFFSET 0 20.6881 -0.73152
    CHANNELS 3 Zrotation Xrotation Yrotation
    JOINT chest
    {
      OFFSET 0 11.7043 -0.48768
      CHANNELS 3 Zrotation Xrotation Yrotation
      JOINT neck
      {
        OFFSET 0 22.1894 -2.19456
        CHANNELS 3 Zrotation Xrotation Yrotation
        JOINT head
        {
          OFFSET -0.24384 7.07133 1.2192
          CHANNELS 3 Zrotation Xrotation Yrotation
          JOINT leftEye
          {
            OFFSET 4.14528 8.04674 8.04672
            CHANNELS 3 Zrotation Xrotation Yrotation
            End Site
            {
              OFFSET 1 0 0
            }
          }
          JOINT rightEye
          {
            OFFSET -3.6576 8.04674 8.04672
            CHANNELS 3 Zrotation Xrotation Yrotation
            End Site
            {
              OFFSET 1 0 0
            }
          }
        }
      }
      JOINT rCollar
      {
        OFFSET -2.68224 19.2634 -4.8768
        CHANNELS 3 Zrotation Xrotation Yrotation
        JOINT rShldr
        {
          OFFSET -8.77824 -1.95073 1.46304
          CHANNELS 3 Zrotation Xrotation Yrotation
          JOINT rForeArm
          {
            OFFSET -28.1742 -1.7115 0.48768
            CHANNELS 3 Zrotation Xrotation Yrotation
            JOINT rHand
            {
              OFFSET -22.5879 0.773209 7.07136
              CHANNELS 3 Zrotation Xrotation Yrotation
              JOINT rThumb1
              {
                OFFSET -1.2192 -0.487915 3.41376
                CHANNELS 3 Zrotation Xrotation Yrotation
                JOINT rThumb2
                {
                  OFFSET -3.37035 -0.52449 3.41376
                  CHANNELS 3 Zrotation Xrotation Yrotation
                  End Site
                  {
                    OFFSET -1.78271 -1.18214 1.43049
                  }
                }
              }
              JOINT rIndex1
              {
                OFFSET -7.75947 0.938293 5.60832
                CHANNELS 3 Zrotation Xrotation Yrotation
                JOINT rIndex2
                {
                  OFFSET -2.54057 -0.884171 1.56538
                  CHANNELS 3 Zrotation Xrotation Yrotation
                  End Site
                  {
                    OFFSET -1.62519 -0.234802 1.16502
                  }
                }
              }
              JOINT rMid1
              {
                OFFSET -8.24714 1.18213 3.41376
                CHANNELS 3 Zrotation Xrotation Yrotation
                JOINT rMid2
                {
                  OFFSET -3.10165 -0.590103 1.0647
                  CHANNELS 3 Zrotation Xrotation Yrotation
                  End Site
                  {
                    OFFSET -2.48547 -0.328903 0.83742
                  }
                }
              }
              JOINT rRing1
              {
                OFFSET -8.82822 0.546677 1.51678
                CHANNELS 3 Zrotation Xrotation Yrotation
                JOINT rRing2
                {
                  OFFSET -2.60934 -0.819778 -0.0198488
                  CHANNELS 3 Zrotation Xrotation Yrotation
                  End Site
                  {
                    OFFSET -2.33842 -0.294052 0.168128
                  }
                }
              }
              JOINT rPinky1
              {
                OFFSET -8.27202 -0.0477905 -0.4584
                CHANNELS 3 Zrotation Xrotation Yrotation
                JOINT rPinky2
                {
                  OFFSET -1.82734 -0.647385 -0.700984
                  CHANNELS 3 Zrotation Xrotation Yrotation
                  End Site
                  {
                    OFFSET -1.69225 -0.51767 -0.607171
                  }
                }
              }
            }
          }
        }
      }
      JOINT lCollar
      {
        OFFSET 2.68224 19.2634 -4.8768
        CHANNELS 3 Zrotation Xrotation Yrotation
        JOINT lShldr
        {
          OFFSET 8.77824 -1.95073 1.46304
          CHANNELS 3 Zrotation Xrotation Yrotation
          JOINT lForeArm
          {
            OFFSET 28.1742 -1.7115 0.48768
            CHANNELS 3 Zrotation Xrotation Yrotation
            JOINT lHand
            {
              OFFSET 22.5879 0.773209 7.07136
              CHANNELS 3 Zrotation Xrotation Yrotation
              JOINT lThumb1
              {
                OFFSET 1.2192 -0.487915 3.41376
                CHANNELS 3 Zrotation Xrotation Yrotation
                JOINT lThumb2
                {
                  OFFSET 3.37035 -0.52449 3.41376
                  CHANNELS 3 Zrotation Xrotation Yrotation
                  End Site
                  {
                    OFFSET 1.78271 -1.18214 1.43049
                  }
                }
              }
              JOINT lIndex1
              {
                OFFSET 7.75947 0.938293 5.60832
                CHANNELS 3 Zrotation Xrotation Yrotation
                JOINT lIndex2
                {
                  OFFSET 2.54057 -0.884171 1.56538
                  CHANNELS 3 Zrotation Xrotation Yrotation
                  End Site
                  {
                    OFFSET 1.62519 -0.234802 1.16502
                  }
                }
              }
              JOINT lMid1
              {
                OFFSET 8.24714 1.18213 3.41376
                CHANNELS 3 Zrotation Xrotation Yrotation
                JOINT lMid2
                {
                  OFFSET 3.10165 -0.590103 1.0647
                  CHANNELS 3 Zrotation Xrotation Yrotation
                  End Site
                  {
                    OFFSET 2.48547 -0.328903 0.83742
                  }
                }
              }
              JOINT lRing1
              {
                OFFSET 8.82822 0.546677 1.51678
                CHANNELS 3 Zrotation Xrotation Yrotation
                JOINT lRing2
                {
                  OFFSET 2.60934 -0.819778 -0.0198488
                  CHANNELS 3 Zrotation Xrotation Yrotation
                  End Site
                  {
                    OFFSET 2.33842 -0.294052 0.168128
                  }
                }
              }
              JOINT lPinky1
              {
                OFFSET 8.27202 -0.0477905 -0.4584
                CHANNELS 3 Zrotation Xrotation Yrotation
                JOINT lPinky2
                {
                  OFFSET 1.82734 -0.647385 -0.700984
                  CHANNELS 3 Zrotation Xrotation Yrotation
                  End Site
                  {
                    OFFSET 1.69225 -0.51767 -0.607171
                  }
                }
              }
            }
          }
        }
      }
    }
  }
  JOINT rButtock
  {
    OFFSET -8.77824 4.35084 1.2192
    CHANNELS 3 Zrotation Xrotation Yrotation
    JOINT rThigh
    {
      OFFSET 0 -1.70687 -2.19456
      CHANNELS 3 Zrotation Xrotation Yrotation
      JOINT rShin
      {
        OFFSET 0 -36.8199 0.73152
        CHANNELS 3 Zrotation Xrotation Yrotation
        JOINT rFoot
        {
          OFFSET 0.73152 -45.1104 -5.12064
          CHANNELS 3 Zrotation Xrotation Yrotation
          End Site
          {
            OFFSET -1.1221 -3.69964 12.103
          }
        }
      }
    }
  }
  JOINT lButtock
  {
    OFFSET 8.77824 4.35084 1.2192
    CHANNELS 3 Zrotation Xrotation Yrotation
    JOINT lThigh
    {
      OFFSET 0 -1.70687 -2.19456
      CHANNELS 3 Zrotation Xrotation Yrotation
      JOINT lShin
      {
        OFFSET 0 -36.8199 0.73152
        CHANNELS 3 Zrotation Xrotation Yrotation
        JOINT lFoot
        {
          OFFSET -0.73152 -45.1104 -5.12064
          CHANNELS 3 Zrotation Xrotation Yrotation
          End Site
          {
            OFFSET 1.1221 -3.69964 12.103
          }
        }
      }
    }
  }
}
MOTION
Frames:	4
Frame Time:	0.03333
0.10343019493173777 33.05174643146068 0.3433231405295404 -3.181777000427246 6.3289923667907715 5.677798271179199 -2.310525894165039 14.0276460647583 4.234321117401123 2.4669861793518066 -9.55324935913086 1.383540153503418 -5.654646396636963 16.09755516052246 -3.9510724544525146 8.945320129394531 -25.961145401000977 -5.699089527130127 0.47336190938949585 0.2985706031322479 -0.1584799438714981 -0.24537530541419983 0.06025001034140587 -0.04115889593958855 0.18993312120437622 -0.22522936761379242 0.23189422488212585 43.797508239746094 35.30392074584961 17.76970100402832 -30.783117294311523 -31.812597274780273 62.84823989868164 -1.860397219657898 -10.982831954956055 -0.6375858783721924 -0.18916434049606323 -0.05046271160244942 -0.1450875699520111 -0.013732790015637875 -0.19215701520442963 0.05240249261260033 -0.1723078340291977 -0.1393340826034546 0.12916792929172516 7.967379570007324 5.4903717041015625 0.3170819878578186 0.47401028871536255 -0.07866780459880829 0.20333276689052582 3.0072484016418457 0.918709933757782 -0.040080223232507706 -0.4605810344219208 0.33476173877716064 -0.02755584754049778 11.036234855651855 0.7656769752502441 -0.25701257586479187 0.10056290030479431 0.17372508347034454 0.17520606517791748 2.3445444107055664 -1.125510811805725 -0.7234342098236084 -0.053568631410598755 0.07238125056028366 -0.15801599621772766 -54.042442321777344 41.56458282470703 -26.688907623291016 28.33469581604004 -30.12462615966797 -62.5752067565918 2.3201701641082764 -13.400200843811035 1.7796868085861206 -0.08253087848424911 -0.3072076141834259 0.0899621844291687 0.1640390306711197 0.41748565435409546 0.30776745080947876 -0.022784240543842316 -0.28887689113616943 0.6220624446868896 -7.5400800704956055 5.993923187255859 -0.5378501415252686 -0.01668165810406208 0.23320172727108002 -0.0912255048751831 -3.129448175430298 0.9849199652671814 -0.2961665391921997 0.2215701937675476 0.01640959456562996 0.09531502425670624 -10.089889526367188 0.6591899394989014 0.1059439480304718 0.16988825798034668 0.08901424705982208 -0.12344928830862045 -2.234412908554077 -0.29239732027053833 0.16310405731201172 0.0320923738181591 -0.26235419511795044 -0.1378587931394577 -28.741127014160156 -38.541690826416016 -25.318267822265625 -1.0098150968551636 66.53742218017578 2.4361519813537598 -4.773303508758545 -10.258098602294922 -8.948565483093262 -0.43138545751571655 0.5966483950614929 -0.1496114283800125 32.64546203613281 -36.748172760009766 26.572572708129883 1.1866315603256226 66.61834716796875 -2.3841822147369385 5.3410725593566895 -11.27035140991211 13.07868766784668
0.0276872390177045 36.12265412381177 0.23383977048715815 -3.0544135570526123 5.694740295410156 5.6482367515563965 -2.2853198051452637 15.53752326965332 3.8896195888519287 2.774397611618042 -10.280095100402832 1.0148029327392578 -4.518617153167725 15.691636085510254 -2.7161779403686523 9.045539855957031 -26.636322021484375 -3.0924582481384277 -0.3917895555496216 -0.1661997139453888 0.017052123323082924 0.22235830128192902 0.021520402282476425 0.07593687623739243 -0.028537843376398087 0.2778553068637848 -0.350689560174942 47.08843994140625 37.83476638793945 16.632535934448242 -28.241472244262695 -32.20266342163086 64.6817626953125 -1.2586194276809692 -11.057698249816895 -2.2292428016662598 0.20719757676124573 0.06146834418177605 0.20642758905887604 -0.029368868097662926 0.12644806504249573 0.03823588788509369 0.14225216209888458 0.11989914625883102 -0.18769881129264832 7.775552749633789 5.641794204711914 0.3738209009170532 -0.3226906359195709 0.11192803829908371 -0.42253392934799194 3.1325161457061768 0.966959536075592 0.09192657470703125 0.37458738684654236 -0.14517031610012054 0.05985051020979881 10.024557113647461 0.675469160079956 0.21870407462120056 -0.06157608702778816 -0.14432822167873383 -0.0034792700316756964 2.1248972415924072 -0.42824065685272217 0.2415894865989685 0.11918497830629349 0.07922416180372238 0.12946610152721405 -51.604087829589844 37.73661804199219 -30.486066818237305 28.316844940185547 -30.527650833129883 -59.38720703125 1.7668938636779785 -13.908686637878418 2.3812427520751953 0.08323679119348526 0.21014901995658875 -0.03695383667945862 -0.0476226769387722 -0.45874834060668945 -0.22554145753383636 0.0940108597278595 0.2859448492527008 -0.4165104925632477 -8.181598663330078 5.15681791305542 -0.2323952466249466 -0.13051779568195343 -0.15994951128959656 0.00598965073004365 -2.817298650741577 0.8855907917022705 -0.01827632449567318 -0.22204262018203735 0.10317335277795792 -0.10100522637367249 -10.609177589416504 0.8265721201896667 -0.16231593489646912 -0.10259373486042023 -0.006068791262805462 -0.008376679383218288 -2.2855846881866455 -1.112636923789978 0.16126033663749695 0.0616341233253479 0.09092298150062561 0.09576977789402008 -27.90683364868164 -38.058189392089844 -23.210432052612305 -2.45632266998291 65.30769348144531 3.323181390762329 -4.437099456787109 -11.054584503173828 -10.300926208496094 0.2682461738586426 -0.36621493101119995 0.13198767602443695 34.58845138549805 -38.253971099853516 27.960962295532227 2.5874364376068115 66.26240539550781 -3.740450382232666 4.6475090980529785 -10.13305377960205 13.484106063842773
0.5633535758558286 35.90781052346902 -0.007545331320454242 -8.921551704406738 -11.757894515991211 8.03210163116455 3.9883909225463867 12.22335433959961 5.128548622131348 0.8206465840339661 -8.664974212646484 1.621461033821106 -3.7757949829101562 13.771939277648926 -0.9922327399253845 7.240314960479736 -24.746875762939453 -0.7943748831748962 0.06865470111370087 0.24832920730113983 -0.04577666521072388 -0.3839397728443146 0.236116424202919 0.10744012892246246 -0.013658212497830391 0.26864510774612427 -0.1408557891845703 61.5713996887207 44.74634552001953 1.095898985862732 -27.14816665649414 -29.55376625061035 58.2891845703125 -0.9296659827232361 -14.220406532287598 -1.6336911916732788 0.04359123855829239 -0.07548481225967407 0.0015243414090946317 -0.6661171913146973 -0.16976398229599 0.13400480151176453 0.13448184728622437 -0.20249667763710022 0.15553061664104462 7.594511032104492 4.786202430725098 0.666590690612793 -0.2414625734090805 0.2559754252433777 -0.7513273358345032 2.66074800491333 0.8511752486228943 0.0821738913655281 -0.24997901916503906 -0.1745784729719162 0.6682155728340149 10.571035385131836 0.6991607546806335 -0.6143014430999756 -0.3551008403301239 0.10239265114068985 0.22600790858268738 2.507127046585083 -1.0724295377731323 -0.03581999987363815 -0.06400599330663681 -0.06925327330827713 -0.17036618292331696 -58.409481048583984 26.33941650390625 -27.75732421875 20.861148834228516 -19.462135314941406 -40.8703727722168 1.4328044652938843 5.465811729431152 -1.1719982624053955 0.21915608644485474 0.4315425753593445 -0.093478262424469 -0.0527447871863842 -0.3978874385356903 -0.2649269104003906 0.24525700509548187 0.1769988089799881 0.17141512036323547 -7.661683082580566 5.039670467376709 0.24375958740711212 -0.06380704045295715 -0.11317922919988632 0.17267948389053345 -2.6265416145324707 1.0767991542816162 -0.055722612887620926 -0.5197497010231018 0.08447584509849548 -0.05960765853524208 -9.942138671875 0.763349175453186 0.0756557509303093 -0.17896179854869843 0.3483980894088745 -0.14275898039340973 -2.2242140769958496 -0.15720753371715546 0.3753618896007538 0.15959301590919495 -0.6819108128547668 -0.2195928394794464 -11.447595596313477 -19.31386947631836 -8.843064308166504 -0.1603529304265976 51.266502380371094 2.025279998779297 -9.394575119018555 -15.258122444152832 -22.920785903930664 -0.6714790463447571 0.3716781735420227 -0.41667190194129944 46.60637664794922 -50.44331741333008 34.934967041015625 1.7263363599777222 69.757568359375 -1.5872101783752441 1.5526939630508423 -4.43443489074707 4.4199934005737305
0.6692042190746896 36.63214183966512 0.01572851159593776 -13.78620719909668 -26.008291244506836 10.377914428710938 9.82726764678955 10.206281661987305 7.726304531097412 -0.9908831119537354 -7.565333843231201 3.0515739917755127 -3.715670108795166 12.435576438903809 1.0885056257247925 5.570401668548584 -23.564739227294922 3.585355281829834 0.438907265663147 -0.3669564425945282 -0.21248522400856018 -1.183558464050293 0.7098678350448608 0.5153305530548096 -0.0008855874766595662 0.44792863726615906 -0.18974487483501434 73.97061920166016 44.836448669433594 -14.846040725708008 -25.254884719848633 -22.316890716552734 49.14010238647461 -0.3205964267253876 -6.738620281219482 -0.9923287034034729 -0.15533199906349182 0.3780643939971924 -0.028990745544433594 -1.0290905237197876 -0.28097307682037354 0.5545350313186646 0.09886850416660309 -0.2457587569952011 0.7274839282035828 8.116687774658203 4.956709861755371 0.24710547924041748 0.47489693760871887 -0.39203596115112305 -0.4807569682598114 2.7488346099853516 1.287650227546692 -0.03609074279665947 0.3092087507247925 -0.06824599206447601 0.599581778049469 10.847308158874512 0.5909623503684998 -0.5616710782051086 -0.8192707896232605 0.4004160165786743 0.17604029178619385 2.1575942039489746 -1.5385388135910034 -0.2899154722690582 -0.13363628089427948 0.04396954923868179 -0.5975096821784973 -64.64866638183594 17.878498077392578 -22.278135299682617 13.223718643188477 -6.751856327056885 -25.95780372619629 0.7955644130706787 20.113636016845703 -3.1461641788482666 -0.21062715351581573 0.12632380425930023 -1.1229021549224854 -0.08137936145067215 -0.9700676202774048 0.5917280316352844 0.6375172734260559 0.3047325313091278 0.4601791203022003 -8.22641658782959 5.16957950592041 -0.3575480580329895 -0.2787018418312073 -0.05977770686149597 0.15905527770519257 -2.8473877906799316 1.4716098308563232 0.30173179507255554 -0.3953569829463959 0.32494500279426575 -0.008645724505186081 -9.785628318786621 0.3976641893386841 0.5563009977340698 -0.5023244023323059 0.0796278640627861 -0.7023921012878418 -2.7677204608917236 -0.9092415571212769 0.4601978361606598 0.2614940106868744 -0.39234399795532227 -0.058821193873882294 -2.7403762340545654 1.5848747491836548 -0.2910057306289673 1.7300047874450684 36.48890686035156 0.8593378067016602 -12.928985595703125 -18.650514602661133 -34.55702590942383 -0.24672336876392365 0.2713595926761627 -0.45909765362739563 66.735107421875 -61.682186126708984 51.10099792480469 2.9370100498199463 73.26061248779297 -2.3525850772857666 -2.5573086738586426 1.3403533697128296 -3.9696199893951416
